<?xml version='1.0' encoding='UTF-8'?>
<svg width="33mm" height="33mm" version="1.1" viewBox="0 0 33 33" xmlns="http://www.w3.org/2000/svg"><path d="M2,2H3V3H2zM3,2H4V3H3zM4,2H5V3H4zM5,2H6V3H5zM6,2H7V3H6zM7,2H8V3H7zM8,2H9V3H8zM10,2H11V3H10zM12,2H13V3H12zM14,2H15V3H14zM16,2H17V3H16zM19,2H20V3H19zM20,2H21V3H20zM24,2H25V3H24zM25,2H26V3H25zM26,2H27V3H26zM27,2H28V3H27zM28,2H29V3H28zM29,2H30V3H29zM30,2H31V3H30zM2,3H3V4H2zM8,3H9V4H8zM10,3H11V4H10zM11,3H12V4H11zM12,3H13V4H12zM16,3H17V4H16zM19,3H20V4H19zM20,3H21V4H20zM21,3H22V4H21zM22,3H23V4H22zM24,3H25V4H24zM30,3H31V4H30zM2,4H3V5H2zM4,4H5V5H4zM5,4H6V5H5zM6,4H7V5H6zM8,4H9V5H8zM10,4H11V5H10zM11,4H12V5H11zM12,4H13V5H12zM14,4H15V5H14zM15,4H16V5H15zM16,4H17V5H16zM18,4H19V5H18zM22,4H23V5H22zM24,4H25V5H24zM26,4H27V5H26zM27,4H28V5H27zM28,4H29V5H28zM30,4H31V5H30zM2,5H3V6H2zM4,5H5V6H4zM5,5H6V6H5zM6,5H7V6H6zM8,5H9V6H8zM12,5H13V6H12zM14,5H15V6H14zM15,5H16V6H15zM19,5H20V6H19zM21,5H22V6H21zM22,5H23V6H22zM24,5H25V6H24zM26,5H27V6H26zM27,5H28V6H27zM28,5H29V6H28zM30,5H31V6H30zM2,6H3V7H2zM4,6H5V7H4zM5,6H6V7H5zM6,6H7V7H6zM8,6H9V7H8zM10,6H11V7H10zM11,6H12V7H11zM13,6H14V7H13zM16,6H17V7H16zM18,6H19V7H18zM20,6H21V7H20zM21,6H22V7H21zM22,6H23V7H22zM24,6H25V7H24zM26,6H27V7H26zM27,6H28V7H27zM28,6H29V7H28zM30,6H31V7H30zM2,7H3V8H2zM8,7H9V8H8zM11,7H12V8H11zM12,7H13V8H12zM13,7H14V8H13zM14,7H15V8H14zM16,7H17V8H16zM22,7H23V8H22zM24,7H25V8H24zM30,7H31V8H30zM2,8H3V9H2zM3,8H4V9H3zM4,8H5V9H4zM5,8H6V9H5zM6,8H7V9H6zM7,8H8V9H7zM8,8H9V9H8zM10,8H11V9H10zM12,8H13V9H12zM14,8H15V9H14zM16,8H17V9H16zM18,8H19V9H18zM20,8H21V9H20zM22,8H23V9H22zM24,8H25V9H24zM25,8H26V9H25zM26,8H27V9H26zM27,8H28V9H27zM28,8H29V9H28zM29,8H30V9H29zM30,8H31V9H30zM11,9H12V10H11zM13,9H14V10H13zM15,9H16V10H15zM17,9H18V10H17zM18,9H19V10H18zM21,9H22V10H21zM2,10H3V11H2zM5,10H6V11H5zM6,10H7V11H6zM7,10H8V11H7zM8,10H9V11H8zM9,10H10V11H9zM10,10H11V11H10zM11,10H12V11H11zM16,10H17V11H16zM18,10H19V11H18zM19,10H20V11H19zM23,10H24V11H23zM26,10H27V11H26zM28,10H29V11H28zM29,10H30V11H29zM30,10H31V11H30zM3,11H4V12H3zM4,11H5V12H4zM6,11H7V12H6zM9,11H10V12H9zM12,11H13V12H12zM13,11H14V12H13zM14,11H15V12H14zM17,11H18V12H17zM19,11H20V12H19zM20,11H21V12H20zM21,11H22V12H21zM25,11H26V12H25zM26,11H27V12H26zM28,11H29V12H28zM29,11H30V12H29zM2,12H3V13H2zM8,12H9V13H8zM9,12H10V13H9zM10,12H11V13H10zM12,12H13V13H12zM13,12H14V13H13zM15,12H16V13H15zM16,12H17V13H16zM17,12H18V13H17zM18,12H19V13H18zM19,12H20V13H19zM23,12H24V13H23zM24,12H25V13H24zM25,12H26V13H25zM28,12H29V13H28zM2,13H3V14H2zM3,13H4V14H3zM4,13H5V14H4zM5,13H6V14H5zM6,13H7V14H6zM7,13H8V14H7zM9,13H10V14H9zM10,13H11V14H10zM14,13H15V14H14zM17,13H18V14H17zM19,13H20V14H19zM23,13H24V14H23zM24,13H25V14H24zM27,13H28V14H27zM30,13H31V14H30zM2,14H3V15H2zM3,14H4V15H3zM4,14H5V15H4zM8,14H9V15H8zM9,14H10V15H9zM11,14H12V15H11zM16,14H17V15H16zM17,14H18V15H17zM20,14H21V15H20zM21,14H22V15H21zM22,14H23V15H22zM24,14H25V15H24zM25,14H26V15H25zM30,14H31V15H30zM3,15H4V16H3zM4,15H5V16H4zM9,15H10V16H9zM10,15H11V16H10zM12,15H13V16H12zM16,15H17V16H16zM17,15H18V16H17zM18,15H19V16H18zM19,15H20V16H19zM20,15H21V16H20zM24,15H25V16H24zM26,15H27V16H26zM27,15H28V16H27zM28,15H29V16H28zM29,15H30V16H29zM30,15H31V16H30zM2,16H3V17H2zM5,16H6V17H5zM8,16H9V17H8zM13,16H14V17H13zM14,16H15V17H14zM16,16H17V17H16zM17,16H18V17H17zM19,16H20V17H19zM21,16H22V17H21zM25,16H26V17H25zM28,16H29V17H28zM30,16H31V17H30zM3,17H4V18H3zM5,17H6V18H5zM6,17H7V18H6zM10,17H11V18H10zM11,17H12V18H11zM12,17H13V18H12zM13,17H14V18H13zM17,17H18V18H17zM21,17H22V18H21zM22,17H23V18H22zM25,17H26V18H25zM26,17H27V18H26zM28,17H29V18H28zM30,17H31V18H30zM2,18H3V19H2zM3,18H4V19H3zM5,18H6V19H5zM6,18H7V19H6zM8,18H9V19H8zM9,18H10V19H9zM13,18H14V19H13zM14,18H15V19H14zM16,18H17V19H16zM18,18H19V19H18zM27,18H28V19H27zM2,19H3V20H2zM3,19H4V20H3zM5,19H6V20H5zM11,19H12V20H11zM13,19H14V20H13zM14,19H15V20H14zM15,19H16V20H15zM20,19H21V20H20zM21,19H22V20H21zM22,19H23V20H22zM23,19H24V20H23zM26,19H27V20H26zM28,19H29V20H28zM29,19H30V20H29zM2,20H3V21H2zM3,20H4V21H3zM4,20H5V21H4zM5,20H6V21H5zM8,20H9V21H8zM9,20H10V21H9zM11,20H12V21H11zM13,20H14V21H13zM14,20H15V21H14zM17,20H18V21H17zM19,20H20V21H19zM20,20H21V21H20zM21,20H22V21H21zM23,20H24V21H23zM24,20H25V21H24zM27,20H28V21H27zM30,20H31V21H30zM2,21H3V22H2zM3,21H4V22H3zM4,21H5V22H4zM7,21H8V22H7zM10,21H11V22H10zM11,21H12V22H11zM12,21H13V22H12zM13,21H14V22H13zM14,21H15V22H14zM16,21H17V22H16zM17,21H18V22H17zM20,21H21V22H20zM23,21H24V22H23zM24,21H25V22H24zM25,21H26V22H25zM26,21H27V22H26zM27,21H28V22H27zM28,21H29V22H28zM2,22H3V23H2zM3,22H4V23H3zM4,22H5V23H4zM5,22H6V23H5zM6,22H7V23H6zM8,22H9V23H8zM11,22H12V23H11zM12,22H13V23H12zM14,22H15V23H14zM15,22H16V23H15zM16,22H17V23H16zM17,22H18V23H17zM19,22H20V23H19zM21,22H22V23H21zM22,22H23V23H22zM23,22H24V23H23zM24,22H25V23H24zM25,22H26V23H25zM26,22H27V23H26zM27,22H28V23H27zM28,22H29V23H28zM29,22H30V23H29zM10,23H11V24H10zM11,23H12V24H11zM12,23H13V24H12zM16,23H17V24H16zM17,23H18V24H17zM20,23H21V24H20zM22,23H23V24H22zM26,23H27V24H26zM27,23H28V24H27zM2,24H3V25H2zM3,24H4V25H3zM4,24H5V25H4zM5,24H6V25H5zM6,24H7V25H6zM7,24H8V25H7zM8,24H9V25H8zM10,24H11V25H10zM11,24H12V25H11zM12,24H13V25H12zM14,24H15V25H14zM16,24H17V25H16zM17,24H18V25H17zM18,24H19V25H18zM19,24H20V25H19zM21,24H22V25H21zM22,24H23V25H22zM24,24H25V25H24zM26,24H27V25H26zM27,24H28V25H27zM2,25H3V26H2zM8,25H9V26H8zM10,25H11V26H10zM12,25H13V26H12zM13,25H14V26H13zM16,25H17V26H16zM19,25H20V26H19zM21,25H22V26H21zM22,25H23V26H22zM26,25H27V26H26zM30,25H31V26H30zM2,26H3V27H2zM4,26H5V27H4zM5,26H6V27H5zM6,26H7V27H6zM8,26H9V27H8zM10,26H11V27H10zM12,26H13V27H12zM14,26H15V27H14zM15,26H16V27H15zM16,26H17V27H16zM17,26H18V27H17zM18,26H19V27H18zM21,26H22V27H21zM22,26H23V27H22zM23,26H24V27H23zM24,26H25V27H24zM25,26H26V27H25zM26,26H27V27H26zM27,26H28V27H27zM29,26H30V27H29zM2,27H3V28H2zM4,27H5V28H4zM5,27H6V28H5zM6,27H7V28H6zM8,27H9V28H8zM10,27H11V28H10zM11,27H12V28H11zM12,27H13V28H12zM13,27H14V28H13zM17,27H18V28H17zM18,27H19V28H18zM22,27H23V28H22zM23,27H24V28H23zM25,27H26V28H25zM30,27H31V28H30zM2,28H3V29H2zM4,28H5V29H4zM5,28H6V29H5zM6,28H7V29H6zM8,28H9V29H8zM11,28H12V29H11zM12,28H13V29H12zM13,28H14V29H13zM14,28H15V29H14zM17,28H18V29H17zM19,28H20V29H19zM20,28H21V29H20zM21,28H22V29H21zM25,28H26V29H25zM26,28H27V29H26zM28,28H29V29H28zM29,28H30V29H29zM30,28H31V29H30zM2,29H3V30H2zM8,29H9V30H8zM11,29H12V30H11zM12,29H13V30H12zM14,29H15V30H14zM16,29H17V30H16zM17,29H18V30H17zM20,29H21V30H20zM23,29H24V30H23zM24,29H25V30H24zM25,29H26V30H25zM27,29H28V30H27zM28,29H29V30H28zM30,29H31V30H30zM2,30H3V31H2zM3,30H4V31H3zM4,30H5V31H4zM5,30H6V31H5zM6,30H7V31H6zM7,30H8V31H7zM8,30H9V31H8zM10,30H11V31H10zM11,30H12V31H11zM12,30H13V31H12zM13,30H14V31H13zM16,30H17V31H16zM21,30H22V31H21zM22,30H23V31H22zM23,30H24V31H23zM26,30H27V31H26zM27,30H28V31H27z" id="qr-path" fill="#000000" fill-opacity="1" fill-rule="nonzero" stroke="none" /></svg>